<?xml version="1.0" encoding="UTF-8"?>
<svg xmlns="http://www.w3.org/2000/svg" xmlns:xlink="http://www.w3.org/1999/xlink" width="292.608734pt" height="231.525772pt" viewBox="0 0 292.608734 231.525772" version="1.1">
<g id="surface1">
<path style=" stroke:none;fill-rule:nonzero;fill:rgb(63.136292%,77.645874%,22.3526%);fill-opacity:1;" d="M 263.59375 0 L 83.179688 0 C 80.070312 0 77.554688 2.519531 77.554688 5.625 C 77.554688 8.730469 80.070312 11.25 83.179688 11.25 L 263.59375 11.25 C 273.390625 11.25 281.359375 19.21875 281.359375 29.015625 L 281.359375 129.003906 L 212.871094 129.003906 C 200.308594 129.003906 190.363281 139.226562 190.089844 151.785156 L 190.089844 220.273438 L 29.015625 220.273438 C 19.21875 220.273438 11.25 212.304688 11.25 202.511719 L 11.25 29.015625 C 11.25 20.613281 17.214844 13.292969 25.425781 11.609375 C 26.597656 11.371094 32.304688 11.25 33.515625 11.25 C 36.621094 11.25 39.140625 8.730469 39.140625 5.625 C 39.140625 2.519531 36.621094 0 33.515625 0 C 31.550781 0 25.085938 0.199219 23.171875 0.589844 C 9.746094 3.335938 0 15.292969 0 29.015625 L 0 202.511719 C 0 218.507812 13.015625 231.527344 29.015625 231.527344 L 195.710938 231.527344 C 197.203125 231.527344 198.632812 230.933594 199.691406 229.878906 L 290.960938 138.605469 C 292.015625 137.550781 292.609375 136.121094 292.609375 134.628906 L 292.609375 29.015625 C 292.609375 13.015625 279.59375 0 263.59375 0 Z M 212.867188 140.253906 L 273.402344 140.253906 L 201.335938 212.320312 L 201.335938 151.785156 C 201.335938 145.425781 206.511719 140.253906 212.867188 140.253906 Z M 212.867188 140.253906 "/>
</g>
</svg>
