<?xml version="1.0" encoding="UTF-8"?>
<svg xmlns="http://www.w3.org/2000/svg" xmlns:xlink="http://www.w3.org/1999/xlink" width="292.608734pt" height="317.499878pt" viewBox="0 0 292.608734 317.499878" version="1.1">
<defs>
<clipPath id="clip1">
  <path d="M 0 85 L 292.609375 85 L 292.609375 317.5 L 0 317.5 Z M 0 85 "/>
</clipPath>
</defs>
<g id="surface1">
<g clip-path="url(#clip1)" clip-rule="nonzero">
<path style=" stroke:none;fill-rule:nonzero;fill:rgb(63.136292%,77.645874%,22.3526%);fill-opacity:1;" d="M 263.59375 85.972656 L 182.179688 85.972656 C 179.070312 85.972656 176.554688 88.492188 176.554688 91.597656 C 176.554688 94.707031 179.070312 97.222656 182.179688 97.222656 L 263.59375 97.222656 C 273.390625 97.222656 281.359375 105.191406 281.359375 114.988281 L 281.359375 214.976562 L 212.871094 214.976562 C 200.308594 214.976562 190.363281 225.199219 190.089844 237.757812 L 190.089844 306.25 L 29.015625 306.25 C 19.21875 306.25 11.25 298.28125 11.25 288.484375 L 11.25 114.988281 C 11.25 106.585938 17.214844 99.265625 25.425781 97.585938 C 26.597656 97.34375 32.304688 97.222656 33.515625 97.222656 C 36.621094 97.222656 39.140625 94.707031 39.140625 91.597656 C 39.140625 88.492188 36.621094 85.972656 33.515625 85.972656 C 31.550781 85.972656 25.085938 86.171875 23.171875 86.5625 C 9.746094 89.3125 0 101.265625 0 114.988281 L 0 288.484375 C 0 304.484375 13.015625 317.5 29.015625 317.5 L 195.710938 317.5 C 197.203125 317.5 198.632812 316.90625 199.691406 315.851562 L 290.960938 224.582031 C 292.015625 223.527344 292.609375 222.09375 292.609375 220.601562 L 292.609375 114.988281 C 292.609375 98.988281 279.59375 85.972656 263.59375 85.972656 Z M 212.867188 226.226562 L 273.402344 226.226562 L 201.335938 298.292969 L 201.335938 237.757812 C 201.335938 231.398438 206.511719 226.226562 212.867188 226.226562 Z M 212.867188 226.226562 "/>
</g>
<path style=" stroke:none;fill-rule:nonzero;fill:rgb(63.136292%,77.645874%,22.3526%);fill-opacity:1;" d="M 107.757812 0 C 90.257812 0 73.808594 6.8125 61.433594 19.1875 C 49.0625 31.558594 42.246094 48.011719 42.246094 65.511719 C 42.246094 78.976562 46.304688 91.917969 53.980469 102.929688 C 60.84375 112.777344 70.144531 120.472656 81.015625 125.328125 L 81.015625 134.886719 L 72.976562 149.359375 C 72.175781 150.796875 72.175781 152.546875 72.976562 153.984375 L 80.328125 167.226562 L 72.972656 180.46875 C 72.175781 181.90625 72.175781 183.65625 72.976562 185.09375 L 80.328125 198.335938 L 72.972656 211.574219 C 72.175781 213.015625 72.175781 214.765625 72.972656 216.203125 L 80.328125 229.445312 L 72.972656 242.6875 C 71.832031 244.742188 72.359375 247.320312 74.214844 248.761719 L 103.007812 271.171875 C 104.671875 272.464844 106.988281 272.511719 108.703125 271.289062 L 134.125 253.109375 C 134.339844 252.953125 134.539062 252.785156 134.722656 252.601562 C 135.605469 251.714844 136.117188 250.507812 136.117188 249.234375 L 136.117188 124.578125 C 158.789062 113.699219 173.265625 90.851562 173.265625 65.511719 C 173.265625 48.011719 166.453125 31.5625 154.078125 19.1875 C 141.707031 6.8125 125.253906 0 107.757812 0 Z M 163.738281 65.507812 C 163.738281 88.082031 150.300781 108.335938 129.5 117.113281 C 127.734375 117.855469 126.585938 119.585938 126.585938 121.5 L 126.585938 246.78125 L 106.054688 261.46875 L 83.285156 243.75 L 89.945312 231.761719 C 90.742188 230.320312 90.742188 228.570312 89.945312 227.132812 L 82.589844 213.890625 L 89.945312 200.648438 C 90.746094 199.210938 90.742188 197.460938 89.945312 196.023438 L 82.589844 182.78125 L 89.945312 169.539062 C 90.746094 168.101562 90.742188 166.351562 89.945312 164.910156 L 82.589844 151.671875 L 89.945312 138.433594 C 90.339844 137.726562 90.546875 136.929688 90.546875 136.117188 L 90.546875 122.152344 C 90.542969 120.1875 89.335938 118.425781 87.503906 117.710938 C 65.800781 109.285156 51.777344 88.792969 51.777344 65.507812 C 51.777344 50.554688 57.597656 36.496094 68.171875 25.925781 C 78.746094 15.351562 92.804688 9.527344 107.757812 9.527344 C 138.625 9.53125 163.738281 34.640625 163.738281 65.507812 Z M 163.738281 65.507812 "/>
<path style=" stroke:none;fill-rule:nonzero;fill:rgb(63.136292%,77.645874%,22.3526%);fill-opacity:1;" d="M 135.339844 31.363281 C 127.558594 25.066406 117.761719 21.597656 107.757812 21.597656 C 97.75 21.597656 87.957031 25.066406 80.171875 31.363281 C 75.082031 35.484375 73.207031 42.148438 75.398438 48.347656 C 77.609375 54.589844 83.304688 58.621094 89.910156 58.621094 L 125.601562 58.621094 C 129.8125 58.621094 133.652344 56.984375 136.457031 54.179688 C 138.050781 52.585938 139.3125 50.609375 140.113281 48.347656 C 142.304688 42.152344 140.433594 35.484375 135.339844 31.363281 Z M 131.128906 45.167969 C 130.457031 47.0625 128.652344 49.09375 125.601562 49.09375 L 89.910156 49.09375 C 86.859375 49.09375 85.054688 47.0625 84.382812 45.167969 C 84.085938 44.324219 83.351562 41.535156 85.644531 39.242188 C 85.800781 39.082031 85.976562 38.925781 86.167969 38.769531 C 92.257812 33.84375 99.925781 31.128906 107.757812 31.128906 C 115.585938 31.128906 123.253906 33.839844 129.34375 38.769531 C 132.265625 41.132812 131.449219 44.265625 131.128906 45.167969 Z M 131.128906 45.167969 "/>
<path style=" stroke:none;fill-rule:nonzero;fill:rgb(63.136292%,77.645874%,22.3526%);fill-opacity:1;" d="M 101.167969 155.390625 L 101.167969 232.496094 C 101.167969 235.125 103.300781 237.257812 105.933594 237.257812 C 107.25 237.257812 108.441406 236.726562 109.304688 235.863281 C 110.164062 235 110.699219 233.808594 110.699219 232.496094 L 110.699219 155.390625 C 110.699219 152.757812 108.566406 150.625 105.933594 150.625 C 103.300781 150.625 101.167969 152.757812 101.167969 155.390625 Z M 101.167969 155.390625 "/>
<path style=" stroke:none;fill-rule:nonzero;fill:rgb(63.136292%,77.645874%,22.3526%);fill-opacity:1;" d="M 101.167969 132.816406 L 101.167969 133.492188 C 101.167969 136.121094 103.300781 138.253906 105.933594 138.253906 C 107.25 138.253906 108.441406 137.722656 109.304688 136.859375 C 110.164062 136 110.699219 134.804688 110.699219 133.492188 L 110.699219 132.816406 C 110.699219 130.1875 108.566406 128.050781 105.933594 128.050781 C 103.300781 128.050781 101.167969 130.1875 101.167969 132.816406 Z M 101.167969 132.816406 "/>
</g>
</svg>
