<?xml version="1.0" encoding="UTF-8"?>
<svg xmlns="http://www.w3.org/2000/svg" xmlns:xlink="http://www.w3.org/1999/xlink" width="115.129128pt" height="114.090027pt" viewBox="0 0 115.129128 114.090027" version="1.1">
<defs>
<clipPath id="clip1">
  <path d="M 0 0 L 115.128906 0 L 115.128906 114.089844 L 0 114.089844 Z M 0 0 "/>
</clipPath>
<clipPath id="clip2">
  <path d="M 129.402344 34.464844 L 28.15625 135.710938 L -20.582031 86.972656 L 80.664062 -14.273438 Z M 129.402344 34.464844 "/>
</clipPath>
</defs>
<g id="surface1">
<g clip-path="url(#clip1)" clip-rule="nonzero">
<g clip-path="url(#clip2)" clip-rule="nonzero">
<path style=" stroke:none;fill-rule:nonzero;fill:rgb(63.136292%,77.253723%,21.960449%);fill-opacity:1;" d="M 105.035156 10.09375 C 98.527344 3.585938 89.871094 0 80.664062 0 C 71.460938 0 62.804688 3.585938 56.296875 10.09375 C 51.289062 15.101562 47.980469 21.425781 46.742188 28.378906 C 45.632812 34.597656 46.230469 40.914062 48.464844 46.769531 L 44.910156 50.324219 L 36.535156 52.714844 C 35.699219 52.953125 35.054688 53.605469 34.816406 54.4375 L 32.625 62.097656 L 24.964844 64.285156 C 24.128906 64.523438 23.480469 65.175781 23.242188 66.007812 L 21.054688 73.671875 L 13.390625 75.859375 C 12.558594 76.097656 11.90625 76.746094 11.671875 77.582031 L 9.480469 85.246094 L 1.816406 87.433594 C 0.628906 87.773438 -0.136719 88.925781 0.0195312 90.152344 L 2.394531 109.199219 C 2.53125 110.304688 3.375 111.179688 4.46875 111.363281 L 20.6875 114.054688 C 20.824219 114.078125 20.960938 114.089844 21.101562 114.089844 C 21.757812 114.089844 22.398438 113.832031 22.871094 113.359375 L 69.242188 66.988281 C 81.722656 71.375 95.605469 68.261719 105.035156 58.832031 C 111.542969 52.324219 115.128906 43.667969 115.128906 34.464844 C 115.128906 25.257812 111.542969 16.601562 105.035156 10.09375 Z M 101.488281 55.289062 C 93.09375 63.683594 80.5625 66.21875 69.558594 61.746094 C 68.625 61.367188 67.554688 61.582031 66.839844 62.292969 L 20.234375 108.898438 L 7.136719 106.722656 L 5.257812 91.664062 L 12.199219 89.679688 C 13.027344 89.445312 13.679688 88.792969 13.917969 87.960938 L 16.105469 80.296875 L 23.769531 78.109375 C 24.601562 77.871094 25.253906 77.21875 25.492188 76.386719 L 27.679688 68.726562 L 35.34375 66.535156 C 36.171875 66.296875 36.824219 65.644531 37.0625 64.816406 L 39.253906 57.152344 L 46.914062 54.964844 C 47.324219 54.847656 47.695312 54.625 47.996094 54.324219 L 53.191406 49.128906 C 53.921875 48.398438 54.128906 47.296875 53.714844 46.347656 C 48.773438 35.140625 51.179688 22.296875 59.84375 13.636719 C 65.402344 8.078125 72.800781 5.011719 80.664062 5.011719 C 88.53125 5.011719 95.929688 8.078125 101.488281 13.636719 C 112.976562 25.121094 112.976562 43.804688 101.488281 55.289062 Z M 101.488281 55.289062 "/>
</g>
</g>
<path style=" stroke:none;fill-rule:nonzero;fill:rgb(63.136292%,77.253723%,21.960449%);fill-opacity:1;" d="M 103.628906 32.019531 C 103.074219 26.785156 100.722656 21.851562 97 18.128906 C 93.277344 14.40625 88.34375 12.054688 83.109375 11.5 C 79.679688 11.140625 76.5 12.921875 75.015625 16.042969 C 73.511719 19.1875 74.128906 22.804688 76.589844 25.261719 L 89.867188 38.539062 C 91.433594 40.105469 93.472656 40.921875 95.554688 40.921875 C 96.742188 40.921875 97.945312 40.660156 99.085938 40.113281 C 102.207031 38.625 103.988281 35.449219 103.628906 32.019531 Z M 96.925781 35.589844 C 95.972656 36.046875 94.546875 36.132812 93.410156 34.996094 L 80.132812 21.71875 C 78.996094 20.582031 79.082031 19.15625 79.539062 18.203125 C 79.742188 17.773438 80.503906 16.46875 82.210938 16.464844 C 82.328125 16.46875 82.453125 16.46875 82.582031 16.484375 C 86.679688 16.917969 90.542969 18.761719 93.453125 21.671875 C 96.367188 24.585938 98.207031 28.445312 98.644531 32.546875 C 98.847656 34.511719 97.382812 35.371094 96.925781 35.589844 Z M 96.925781 35.589844 "/>
<path style=" stroke:none;fill-rule:nonzero;fill:rgb(63.136292%,77.253723%,21.960449%);fill-opacity:1;" d="M 44.78125 65.445312 L 16.097656 94.128906 C 15.117188 95.109375 15.117188 96.695312 16.097656 97.675781 C 16.585938 98.164062 17.230469 98.410156 17.871094 98.410156 C 18.511719 98.410156 19.15625 98.164062 19.644531 97.675781 L 48.324219 68.988281 C 49.300781 68.011719 49.300781 66.425781 48.324219 65.449219 C 47.347656 64.472656 45.757812 64.46875 44.78125 65.445312 Z M 44.78125 65.445312 "/>
<path style=" stroke:none;fill-rule:nonzero;fill:rgb(63.136292%,77.253723%,21.960449%);fill-opacity:1;" d="M 53.175781 57.050781 L 52.925781 57.300781 C 51.949219 58.277344 51.945312 59.867188 52.925781 60.847656 C 53.414062 61.335938 54.058594 61.582031 54.699219 61.582031 C 55.339844 61.582031 55.984375 61.335938 56.472656 60.847656 L 56.722656 60.597656 C 57.703125 59.617188 57.699219 58.03125 56.722656 57.050781 C 55.742188 56.070312 54.15625 56.070312 53.175781 57.050781 Z M 53.175781 57.050781 "/>
</g>
</svg>
