<?xml version="1.0" encoding="UTF-8"?>
<svg xmlns="http://www.w3.org/2000/svg" xmlns:xlink="http://www.w3.org/1999/xlink" width="277.407196pt" height="277.407196pt" viewBox="0 0 277.407196 277.407196" version="1.1">
<defs>
<clipPath id="clip1">
  <path d="M 0 0 L 277.40625 0 L 277.40625 277.40625 L 0 277.40625 Z M 0 0 "/>
</clipPath>
<clipPath id="clip2">
  <path d="M 0 0 L 277.40625 0 L 277.40625 277.40625 L 0 277.40625 Z M 0 0 "/>
</clipPath>
<filter id="alpha" filterUnits="objectBoundingBox" x="0%" y="0%" width="100%" height="100%">
  <feColorMatrix type="matrix" in="SourceGraphic" values="0 0 0 0 1 0 0 0 0 1 0 0 0 0 1 0 0 0 1 0"/>
</filter>
<mask id="mask0">
  <g filter="url(#alpha)">
<rect x="0" y="0" width="277.407196" height="277.407196" style="fill:rgb(0%,0%,0%);fill-opacity:0.5;stroke:none;"/>
  </g>
</mask>
<clipPath id="clip3">
  <rect x="0" y="0" width="278" height="278"/>
</clipPath>
<g id="surface5" clip-path="url(#clip3)">
<path style=" stroke:none;fill-rule:nonzero;fill:rgb(100%,100%,100%);fill-opacity:1;" d="M 52.761719 195.710938 L 92.550781 156.742188 L 110.425781 138.871094 L 127.148438 124.574219 L 127.113281 85.679688 L 142.113281 66.34375 L 154.011719 60.984375 L 174.300781 55.488281 L 197.042969 61.746094 L 212.960938 74.765625 L 223.792969 93.46875 L 223.792969 113.191406 L 213.351562 132.660156 L 193.335938 148.988281 L 171.359375 151.648438 L 156.738281 151.546875 L 130.066406 173.261719 L 80.554688 222.582031 L 59.273438 218.476562 Z M 52.761719 195.710938 "/>
</g>
</defs>
<g id="surface1">
<g clip-path="url(#clip1)" clip-rule="nonzero">
<path style=" stroke:none;fill-rule:nonzero;fill:rgb(63.136292%,77.645874%,22.3526%);fill-opacity:1;" d="M 277.40625 138.703125 C 277.40625 215.308594 215.308594 277.40625 138.703125 277.40625 C 62.101562 277.40625 0 215.308594 0 138.703125 C 0 62.101562 62.101562 0 138.703125 0 C 215.308594 0 277.40625 62.101562 277.40625 138.703125 "/>
</g>
<path style="fill-rule:nonzero;fill:rgb(100%,100%,100%);fill-opacity:1;stroke-width:2.834648;stroke-linecap:butt;stroke-linejoin:miter;stroke:rgb(100%,100%,100%);stroke-opacity:1;stroke-miterlimit:4;" d="M 212.015625 66.195312 C 201.960938 56.140625 188.597656 50.605469 174.378906 50.605469 C 160.164062 50.605469 146.796875 56.144531 136.746094 66.195312 C 129.007812 73.933594 123.90625 83.695312 121.988281 94.429688 C 120.277344 104.035156 121.199219 113.796875 124.652344 122.832031 L 119.164062 128.320312 L 106.230469 132.015625 C 104.941406 132.382812 103.9375 133.390625 103.570312 134.675781 L 100.1875 146.507812 L 88.355469 149.886719 C 87.070312 150.253906 86.066406 151.261719 85.699219 152.546875 L 82.316406 164.378906 L 70.484375 167.757812 C 69.199219 168.128906 68.195312 169.132812 67.828125 170.417969 L 64.445312 182.25 L 52.613281 185.632812 C 50.777344 186.15625 49.597656 187.941406 49.832031 189.835938 L 53.5 219.25 C 53.714844 220.949219 55.019531 222.308594 56.707031 222.589844 L 81.753906 226.75 C 81.964844 226.785156 82.179688 226.800781 82.390625 226.800781 C 83.40625 226.800781 84.394531 226.398438 85.125 225.667969 L 156.738281 154.054688 C 176.011719 160.828125 197.457031 156.023438 212.015625 141.464844 C 222.066406 131.410156 227.601562 118.046875 227.601562 103.828125 C 227.601562 89.613281 222.066406 76.246094 212.015625 66.195312 Z M 206.539062 135.988281 C 193.574219 148.957031 174.21875 152.871094 157.226562 145.964844 C 155.785156 145.378906 154.132812 145.710938 153.03125 146.8125 L 81.058594 218.785156 L 60.828125 215.425781 L 57.925781 192.167969 L 68.640625 189.105469 C 69.925781 188.738281 70.929688 187.730469 71.296875 186.445312 L 74.679688 174.613281 L 86.511719 171.230469 C 87.796875 170.863281 88.804688 169.859375 89.171875 168.574219 L 92.550781 156.742188 L 104.386719 153.359375 C 105.671875 152.992188 106.675781 151.988281 107.042969 150.699219 L 110.425781 138.871094 L 122.253906 135.488281 C 122.886719 135.308594 123.464844 134.96875 123.929688 134.503906 L 131.949219 126.480469 C 133.082031 125.351562 133.398438 123.644531 132.757812 122.183594 C 125.128906 104.875 128.84375 85.046875 142.222656 71.667969 C 150.8125 63.078125 162.230469 58.347656 174.382812 58.347656 C 186.53125 58.347656 197.949219 63.078125 206.542969 71.667969 C 224.273438 89.402344 224.273438 118.257812 206.539062 135.988281 Z M 206.539062 135.988281 "/>
<path style="fill-rule:nonzero;fill:rgb(100%,100%,100%);fill-opacity:1;stroke-width:2.834648;stroke-linecap:butt;stroke-linejoin:miter;stroke:rgb(100%,100%,100%);stroke-opacity:1;stroke-miterlimit:4;" d="M 209.84375 100.058594 C 208.988281 91.96875 205.355469 84.347656 199.605469 78.601562 C 193.859375 72.855469 186.238281 69.21875 178.152344 68.367188 C 172.859375 67.808594 167.953125 70.5625 165.652344 75.378906 C 163.335938 80.234375 164.289062 85.824219 168.085938 89.621094 L 188.589844 110.125 C 191.007812 112.542969 194.152344 113.808594 197.375 113.808594 C 199.210938 113.808594 201.066406 113.398438 202.828125 112.558594 C 207.648438 110.257812 210.402344 105.351562 209.84375 100.058594 Z M 199.496094 105.570312 C 198.019531 106.273438 195.816406 106.402344 194.0625 104.648438 L 173.558594 84.144531 C 171.804688 82.394531 171.933594 80.191406 172.640625 78.714844 C 172.953125 78.058594 174.132812 76.035156 176.765625 76.035156 C 176.949219 76.035156 177.140625 76.042969 177.339844 76.066406 C 183.671875 76.734375 189.632812 79.578125 194.132812 84.078125 C 198.628906 88.574219 201.476562 94.539062 202.144531 100.871094 C 202.464844 103.90625 200.195312 105.234375 199.496094 105.570312 Z M 199.496094 105.570312 "/>
<path style="fill-rule:nonzero;fill:rgb(100%,100%,100%);fill-opacity:1;stroke-width:2.834648;stroke-linecap:butt;stroke-linejoin:miter;stroke:rgb(100%,100%,100%);stroke-opacity:1;stroke-miterlimit:4;" d="M 118.960938 151.679688 L 74.664062 195.972656 C 73.152344 197.484375 73.152344 199.9375 74.664062 201.449219 C 75.421875 202.203125 76.414062 202.582031 77.402344 202.582031 C 78.394531 202.582031 79.382812 202.203125 80.140625 201.449219 L 124.433594 157.152344 C 125.945312 155.640625 125.945312 153.191406 124.433594 151.679688 C 122.925781 150.167969 120.472656 150.167969 118.960938 151.679688 Z M 118.960938 151.679688 "/>
<path style="fill-rule:nonzero;fill:rgb(100%,100%,100%);fill-opacity:1;stroke-width:2.834648;stroke-linecap:butt;stroke-linejoin:miter;stroke:rgb(100%,100%,100%);stroke-opacity:1;stroke-miterlimit:4;" d="M 131.929688 138.710938 L 131.542969 139.097656 C 130.03125 140.609375 130.03125 143.0625 131.542969 144.574219 C 132.296875 145.328125 133.289062 145.707031 134.277344 145.707031 C 135.269531 145.707031 136.261719 145.328125 137.015625 144.574219 L 137.402344 144.1875 C 138.914062 142.675781 138.914062 140.222656 137.402344 138.710938 C 135.890625 137.199219 133.441406 137.199219 131.929688 138.710938 Z M 131.929688 138.710938 "/>
<g clip-path="url(#clip2)" clip-rule="nonzero">
<use xlink:href="#surface5" mask="url(#mask0)"/>
</g>
</g>
</svg>
