<?xml version="1.0" encoding="UTF-8"?>
<svg xmlns="http://www.w3.org/2000/svg" xmlns:xlink="http://www.w3.org/1999/xlink" width="277.407196pt" height="277.407196pt" viewBox="0 0 277.407196 277.407196" version="1.1">
<defs>
<clipPath id="clip1">
  <path d="M 0 0 L 277.40625 0 L 277.40625 277.40625 L 0 277.40625 Z M 0 0 "/>
</clipPath>
<clipPath id="clip2">
  <path d="M 0 0 L 277.40625 0 L 277.40625 277.40625 L 0 277.40625 Z M 0 0 "/>
</clipPath>
<filter id="alpha" filterUnits="objectBoundingBox" x="0%" y="0%" width="100%" height="100%">
  <feColorMatrix type="matrix" in="SourceGraphic" values="0 0 0 0 1 0 0 0 0 1 0 0 0 0 1 0 0 0 1 0"/>
</filter>
<mask id="mask0">
  <g filter="url(#alpha)">
<rect x="0" y="0" width="277.407196" height="277.407196" style="fill:rgb(0%,0%,0%);fill-opacity:0.5;stroke:none;"/>
  </g>
</mask>
<clipPath id="clip3">
  <rect x="0" y="0" width="278" height="278"/>
</clipPath>
<g id="surface5" clip-path="url(#clip3)">
<path style="fill-rule:nonzero;fill:rgb(100%,100%,100%);fill-opacity:1;stroke-width:5.669291;stroke-linecap:round;stroke-linejoin:miter;stroke:rgb(100%,100%,100%);stroke-opacity:1;stroke-miterlimit:4;" d="M 59.652344 78.671875 L 217.972656 78.671875 C 218.054688 78.671875 218.121094 78.738281 218.121094 78.820312 L 218.121094 146.804688 L 176.121094 197.953125 C 176.070312 198.015625 176.054688 198.101562 175.972656 198.101562 L 59.652344 198.101562 C 59.570312 198.101562 59.5 198.035156 59.5 197.953125 L 59.5 78.820312 C 59.5 78.738281 59.570312 78.671875 59.652344 78.671875 Z M 59.652344 78.671875 "/>
</g>
</defs>
<g id="surface1">
<g clip-path="url(#clip1)" clip-rule="nonzero">
<path style=" stroke:none;fill-rule:nonzero;fill:rgb(63.136292%,77.645874%,22.3526%);fill-opacity:1;" d="M 277.40625 138.703125 C 277.40625 215.308594 215.308594 277.40625 138.703125 277.40625 C 62.101562 277.40625 0 215.308594 0 138.703125 C 0 62.101562 62.101562 0 138.703125 0 C 215.308594 0 277.40625 62.101562 277.40625 138.703125 "/>
</g>
<path style="fill-rule:nonzero;fill:rgb(100%,100%,100%);fill-opacity:1;stroke-width:5.669291;stroke-linecap:butt;stroke-linejoin:miter;stroke:rgb(100%,100%,100%);stroke-opacity:1;stroke-miterlimit:4;" d="M 208.808594 69.511719 L 160.144531 69.511719 C 158.289062 69.511719 156.78125 71.019531 156.78125 72.875 C 156.78125 74.730469 158.289062 76.238281 160.144531 76.238281 L 208.808594 76.238281 C 214.664062 76.238281 219.425781 81 219.425781 86.855469 L 219.425781 146.617188 L 178.488281 146.617188 C 170.980469 146.617188 165.039062 152.726562 164.871094 160.234375 L 164.871094 201.171875 L 68.601562 201.171875 C 62.746094 201.171875 57.980469 196.40625 57.980469 190.550781 L 57.980469 86.855469 C 57.980469 81.832031 61.546875 77.457031 66.457031 76.453125 C 67.15625 76.308594 173.667969 76.238281 174.390625 76.238281 C 176.25 76.238281 177.753906 74.730469 177.753906 72.875 C 177.753906 71.019531 176.25 69.511719 174.390625 69.511719 C 173.21875 69.511719 66.25 69.632812 65.109375 69.863281 C 57.082031 71.507812 51.257812 78.652344 51.257812 86.855469 L 51.257812 190.550781 C 51.257812 200.113281 59.039062 207.894531 68.601562 207.894531 L 168.234375 207.894531 C 169.125 207.894531 169.980469 207.539062 170.613281 206.910156 L 225.164062 152.355469 C 225.796875 151.726562 226.148438 150.871094 226.148438 149.980469 L 226.148438 86.855469 C 226.148438 77.292969 218.371094 69.511719 208.808594 69.511719 Z M 178.488281 153.339844 L 214.671875 153.339844 L 171.597656 196.414062 L 171.597656 160.234375 C 171.597656 156.433594 174.6875 153.339844 178.488281 153.339844 Z M 178.488281 153.339844 "/>
<g clip-path="url(#clip2)" clip-rule="nonzero">
<use xlink:href="#surface5" mask="url(#mask0)"/>
</g>
</g>
</svg>
