<?xml version="1.0" encoding="UTF-8" standalone="no"?>
<svg
   xmlns:dc="http://purl.org/dc/elements/1.1/"
   xmlns:cc="http://creativecommons.org/ns#"
   xmlns:rdf="http://www.w3.org/1999/02/22-rdf-syntax-ns#"
   xmlns:svg="http://www.w3.org/2000/svg"
   xmlns="http://www.w3.org/2000/svg"
   xmlns:sodipodi="http://sodipodi.sourceforge.net/DTD/sodipodi-0.dtd"
   xmlns:inkscape="http://www.inkscape.org/namespaces/inkscape"
   width="97.863098mm"
   height="97.863098mm"
   viewBox="0 0 97.863098 97.863098"
   version="1.1"
   id="svg1124"
   inkscape:version="1.0 (1.0+r73+1)"
   sodipodi:docname="item_key_novo.svg">
  <defs
     id="defs1118" />
  <sodipodi:namedview
     id="base"
     pagecolor="#ffffff"
     bordercolor="#666666"
     borderopacity="1.0"
     inkscape:pageopacity="0.0"
     inkscape:pageshadow="2"
     inkscape:zoom="1.3388609"
     inkscape:cx="178.25684"
     inkscape:cy="150.94237"
     inkscape:document-units="mm"
     inkscape:current-layer="layer1"
     inkscape:document-rotation="0"
     showgrid="false"
     fit-margin-top="0"
     fit-margin-left="0"
     fit-margin-right="0"
     fit-margin-bottom="0"
     inkscape:window-width="1474"
     inkscape:window-height="1025"
     inkscape:window-x="0"
     inkscape:window-y="0"
     inkscape:window-maximized="0" />
  <metadata
     id="metadata1121">
    <rdf:RDF>
      <cc:Work
         rdf:about="">
        <dc:format>image/svg+xml</dc:format>
        <dc:type
           rdf:resource="http://purl.org/dc/dcmitype/StillImage" />
        <dc:title></dc:title>
      </cc:Work>
    </rdf:RDF>
  </metadata>
  <g
     inkscape:label="Layer 1"
     inkscape:groupmode="layer"
     id="layer1"
     transform="translate(-47.552818,-100.42673)">
    <circle
       style="fill:#a1c639;fill-opacity:1;stroke:none;stroke-width:3.96899;stroke-linecap:round;stroke-miterlimit:4;stroke-dasharray:none;stroke-dashoffset:0;stroke-opacity:1;paint-order:fill markers stroke"
       id="path937"
       cx="96.484367"
       cy="149.35828"
       r="48.931549" />
    <g
       id="g12-02-8-3"
       transform="matrix(0.12250678,0,0,0.12250678,65.122595,117.99626)"
       style="fill:#ffffff;fill-opacity:1;stroke:#ffffff;stroke-width:8.16282;stroke-miterlimit:4;stroke-dasharray:none;stroke-opacity:1">
      <g
         id="g10-3-9-6"
         style="fill:#ffffff;fill-opacity:1;stroke:#ffffff;stroke-width:8.16282;stroke-miterlimit:4;stroke-dasharray:none;stroke-opacity:1">
        <path
           id="path2-7-7-7"
           d="M 467.111,47.201 C 438.163,18.253 399.675,2.311 358.736,2.311 c -40.936,0 -79.428,15.944 -108.374,44.89 -22.281,22.281 -36.975,50.399 -42.493,81.312 -4.935,27.652 -2.276,55.764 7.669,81.781 l -15.81,15.81 -37.243,10.643 c -3.703,1.058 -6.597,3.953 -7.656,7.655 l -9.737,34.069 -34.072,9.739 c -3.702,1.058 -6.596,3.953 -7.654,7.655 l -9.739,34.071 -34.071,9.738 c -3.702,1.058 -6.596,3.953 -7.655,7.654 l -9.742,34.077 -34.075,9.74 c -5.283,1.51 -8.678,6.645 -7.998,12.098 l 10.562,84.703 c 0.611,4.897 4.367,8.808 9.235,9.618 l 72.125,11.978 c 0.609,0.101 1.219,0.151 1.827,0.151 2.931,0 5.774,-1.157 7.882,-3.265 L 307.934,300.211 c 55.505,19.508 117.251,5.664 159.177,-36.261 28.948,-28.948 44.89,-67.436 44.89,-108.375 0,-40.939 -15.942,-79.428 -44.89,-108.374 z m -15.765,200.983 c -37.34,37.34 -93.078,48.618 -142.005,28.727 -4.152,-1.69 -8.911,-0.725 -12.08,2.443 L 90.006,486.611 31.741,476.934 23.39,409.958 54.239,401.14 c 3.702,-1.059 6.596,-3.953 7.654,-7.654 l 9.743,-34.075 34.071,-9.738 c 3.702,-1.058 6.596,-3.953 7.655,-7.655 l 9.739,-34.071 34.073,-9.741 c 3.702,-1.058 6.596,-3.953 7.654,-7.655 l 9.738,-34.069 34.068,-9.735 c 1.821,-0.521 3.48,-1.497 4.82,-2.836 l 23.101,-23.102 c 3.252,-3.253 4.173,-8.169 2.319,-12.378 -21.966,-49.846 -11.267,-106.945 27.255,-145.467 24.736,-24.738 57.626,-38.361 92.61,-38.36 34.984,0 67.873,13.624 92.61,38.36 51.063,51.067 51.063,134.156 -0.003,185.22 z"
           style="fill:#ffffff;fill-opacity:1;stroke:#ffffff;stroke-width:8.16282;stroke-miterlimit:4;stroke-dasharray:none;stroke-opacity:1" />
        <path
           id="path4-5-3-5"
           d="M 460.856,144.716 C 458.4,121.423 447.932,99.481 431.381,82.93 414.829,66.379 392.887,55.911 369.595,53.454 c -15.24,-1.603 -29.37,6.32 -35.993,20.197 -6.672,13.983 -3.923,30.077 7.005,41.006 l 59.046,59.046 c 6.965,6.964 16.025,10.606 25.303,10.606 5.28,0 10.631,-1.182 15.703,-3.6 13.876,-6.622 21.804,-20.75 20.197,-35.993 z m -29.799,15.872 c -4.251,2.027 -10.592,2.397 -15.639,-2.65 L 356.372,98.892 c -5.047,-5.046 -4.677,-11.388 -2.649,-15.639 0.902,-1.889 4.304,-7.716 11.884,-7.716 0.529,0 1.079,0.028 1.65,0.088 18.231,1.924 35.405,10.116 48.359,23.07 12.954,12.953 21.146,30.126 23.069,48.359 0.921,8.741 -5.606,12.568 -7.628,13.534 z"
           style="fill:#ffffff;fill-opacity:1;stroke:#ffffff;stroke-width:8.16282;stroke-miterlimit:4;stroke-dasharray:none;stroke-opacity:1" />
        <path
           id="path6-9-6-3"
           d="M 199.148,293.367 71.593,420.922 c -4.353,4.353 -4.353,11.411 0,15.765 2.177,2.176 5.03,3.265 7.882,3.265 2.852,0 5.706,-1.089 7.882,-3.265 L 214.912,309.131 c 4.353,-4.353 4.353,-11.411 0,-15.765 -4.352,-4.352 -11.411,-4.352 -15.764,0.001 z"
           style="fill:#ffffff;fill-opacity:1;stroke:#ffffff;stroke-width:8.16282;stroke-miterlimit:4;stroke-dasharray:none;stroke-opacity:1" />
        <path
           id="path8-2-1-5"
           d="m 236.491,256.024 -1.115,1.115 c -4.353,4.353 -4.353,11.411 0,15.765 2.177,2.176 5.03,3.265 7.882,3.265 2.852,0 5.706,-1.089 7.882,-3.265 l 1.115,-1.115 c 4.353,-4.353 4.353,-11.411 0,-15.765 -4.353,-4.353 -11.411,-4.353 -15.764,0 z"
           style="fill:#ffffff;fill-opacity:1;stroke:#ffffff;stroke-width:8.16282;stroke-miterlimit:4;stroke-dasharray:none;stroke-opacity:1" />
      </g>
    </g>
  </g>
</svg>
